# xmcd
#
# Track frame offsets: 
#        150
#        14687
#        28355
#        41642
#        55567
#        70355
#        82097
#        93992
#        108482
#        121635
#        134607
#        148137
#        161560
#        174555
#        187567
#        199132
#        209657
#        223667
#        234797
#        247805
#        259917
#
# Disc length: 3668 seconds
#
# Revision: 5
# Processed by: cddbd v1.5.2PL0 Copyright (c) Steve Scherf et al.
# Submitted via: ExactAudioCopyFreeDBPlugin 1.0
#
DISCID=310e5215
DTITLE=Ella Mae Morse - The Very Best of Ella Mae Morse (Featuring Cow
DTITLE=Co Boogie)
DYEAR=1998
DGENRE=Country
TTITLE0=Cow Cow Boogie
TTITLE1=Mr. Five By Five
TTITLE2=The Thrill is Gone
TTITLE3=Get on Board Little Chillun
TTITLE4=Shoo Shoo Baby
TTITLE5=No Love, No Nothin'
TTITLE6=Milkman, Keep Those Bottles Quiet
TTITLE7=Tess's Torch Song (I Had a Man)
TTITLE8=The Patty Cake Man
TTITLE9=Captain Kidd
TTITLE10=Rip Van Winkle
TTITLE11=Buzz Me
TTITLE12=The House of Blue Lights
TTITLE13=Pig Foot Pete
TTITLE14=Get Off it and Go
TTITLE15=Tennessee Saturday Night
TTITLE16=The Blacksmith Blues
TTITLE17=Oakie Boogie
TTITLE18=40 Cups of Coffee
TTITLE19=I Love You Yes I Do
TTITLE20=Ac-Cent-Tchu-Ate the Positive
EXTD=YEAR: 1998
EXTT0=
EXTT1=
EXTT2=
EXTT3=
EXTT4=
EXTT5=
EXTT6=
EXTT7=
EXTT8=
EXTT9=
EXTT10=
EXTT11=
EXTT12=
EXTT13=
EXTT14=
EXTT15=
EXTT16=
EXTT17=
EXTT18=
EXTT19=
EXTT20=
PLAYORDER=
